<svg xmlns="http://www.w3.org/2000/svg" width="18.622" height="18.622" viewBox="0 0 18.622 18.622">
  <g id="cancel" transform="translate(-8 -8)">
    <path id="Path_35" data-name="Path 35" d="M17.311,8a9.311,9.311,0,1,0,9.311,9.311A9.321,9.321,0,0,0,17.311,8Zm0,17.07a7.759,7.759,0,1,1,7.759-7.759A7.768,7.768,0,0,1,17.311,25.07Z" transform="translate(0 0)" fill="#fff"/>
    <path id="Path_36" data-name="Path 36" d="M29.98,24.227a.776.776,0,0,0-1.1,0L27.1,26.007l-1.779-1.779a.776.776,0,0,0-1.1,1.1L26.007,27.1l-1.779,1.779a.776.776,0,1,0,1.1,1.1L27.1,28.2l1.779,1.779a.776.776,0,0,0,1.1-1.1L28.2,27.1l1.779-1.779A.776.776,0,0,0,29.98,24.227Z" transform="translate(-9.793 -9.793)" fill="#fff"/>
  </g>
</svg>
