<svg xmlns="http://www.w3.org/2000/svg" width="17.724" height="11.297" viewBox="0 0 17.724 11.297">
  <g id="eye" transform="translate(0 -92.835)">
    <g id="Group_75" data-name="Group 75" transform="translate(0 92.835)">
      <g id="Group_74" data-name="Group 74" transform="translate(0 0)">
        <path id="Path_28" data-name="Path 28" d="M17.612,98.139c-.158-.217-3.931-5.3-8.75-5.3s-8.592,5.087-8.75,5.3a.585.585,0,0,0,0,.69c.158.217,3.931,5.3,8.75,5.3s8.591-5.087,8.75-5.3A.584.584,0,0,0,17.612,98.139Zm-8.75,4.825c-3.549,0-6.624-3.376-7.534-4.48C2.237,97.378,5.305,94,8.862,94s6.623,3.376,7.534,4.48C15.487,99.589,12.419,102.963,8.862,102.963Z" transform="translate(0 -92.835)" fill="#285943"/>
      </g>
    </g>
    <g id="Group_77" data-name="Group 77" transform="translate(5.356 94.978)">
      <g id="Group_76" data-name="Group 76" transform="translate(0 0)">
        <path id="Path_29" data-name="Path 29" d="M158.228,154.725a3.506,3.506,0,1,0,3.506,3.506A3.51,3.51,0,0,0,158.228,154.725Zm0,5.843a2.337,2.337,0,1,1,2.337-2.337A2.34,2.34,0,0,1,158.228,160.568Z" transform="translate(-154.722 -154.725)" fill="#285943"/>
      </g>
    </g>
  </g>
</svg>
