<svg xmlns="http://www.w3.org/2000/svg" viewBox="0 0 332.32 103.3"><title>Asset 4</title><g id="Layer_2" data-name="Layer 2"><g id="Layer_1-2" data-name="Layer 1"><path d="M92.13,17A53.31,53.31,0,0,0,52.87,0C23.67,0,0,23.12,0,51.65S23.67,103.3,52.87,103.3a53.31,53.31,0,0,0,39.26-17,50.77,50.77,0,0,0,0-69.21ZM84.94,76.36A41.15,41.15,0,0,1,52.87,91.54C30.32,91.54,12,73.68,12,51.65s18.29-39.9,40.84-39.9A41.15,41.15,0,0,1,84.94,26.93a39.19,39.19,0,0,1,0,49.43Z" style="fill:#06a64f"/><polygon points="71.32 51.65 41.23 34.68 41.23 68.61 71.32 51.65" style="fill:#06a64f"/><path d="M132,24.8a12.4,12.4,0,0,1,.56-3.57,19,19,0,0,1,1.56-3.68A21.79,21.79,0,0,1,136.59,14a26.38,26.38,0,0,1,3.12-3.14,26.81,26.81,0,0,1,6.59-4.13,17.76,17.76,0,0,1,7.2-1.57A17.56,17.56,0,0,1,161.76,7a15.65,15.65,0,0,1,5.59,4.85,16.88,16.88,0,0,1,2.4,5,19.91,19.91,0,0,1,.82,5.73c0,.22,0,.43,0,.64s0,.43,0,.64a17,17,0,0,1-2.1,7.14,24,24,0,0,1-5,6.34A26.75,26.75,0,0,1,156.19,42a20.94,20.94,0,0,1-8.51,1.78,17.6,17.6,0,0,1-6.95-1.23A12.61,12.61,0,0,1,136,39.13a14.55,14.55,0,0,1-3.06-5.89A33.11,33.11,0,0,1,132,25Zm15.89,1.07a2.19,2.19,0,0,0,.56,1.62,1.58,1.58,0,0,0,1.07.56,3.51,3.51,0,0,0,1.53-.34,4.41,4.41,0,0,0,2-1.86,2.19,2.19,0,0,0,.31-1v-.37q0-2.34-1.84-2.34a2.83,2.83,0,0,0-1,.24,5,5,0,0,0-1.15.67,3.83,3.83,0,0,0-1,1.12,3.39,3.39,0,0,0-.46,1.54Z" style="fill:#06a64f"/><path d="M151.82,78.71a166.44,166.44,0,0,1-12.64,12.87q-9,8.45-15.66,9.67-4.5.11-7.41-4.42-1.94-4.21-.23-7.41a10,10,0,0,1,4.57-4.53q3.83-2.45,6.36-4A42.75,42.75,0,0,0,132,77.12a38.7,38.7,0,0,0,4.39-4.26,14,14,0,0,1-1.07-5q1-5,4-6.69a14.37,14.37,0,0,1,5.85-2q4.85-.48,7.46,4.37,3.32-2,5-3.17a5.88,5.88,0,0,1,3.5-1.2A4.28,4.28,0,0,1,164,61.21q1,1.68,2,3.22l2.2-1.7a25,25,0,0,1,5.08-3.31,6.34,6.34,0,0,1,3.3-.21q4.5,1.23,5.41,8.52,0,4.58-6.23,9.43t-12,5.81q-4.5-.53-5.54-1.6a20.51,20.51,0,0,1-2.28-2.87A11.49,11.49,0,0,1,151.82,78.71Z" style="fill:#06a64f"/><path d="M206.49,21q-3.12-.05-4.5-.05a17.6,17.6,0,0,1-4.85-1.23q-2.86-1.49-3.27-5.7,0-5.06,3.37-7.38t10.37-1.94q8.58.9,13.59,4.13t5.31,8.34q.51,6.18-6.62,13a122.08,122.08,0,0,1-14.33,11.91q-7.41,5.17-12.67-3.84a17.07,17.07,0,0,1-.43-5,5.68,5.68,0,0,1,2.38-4A47.46,47.46,0,0,0,206.49,21Z" style="fill:#06a64f"/><path d="M201.63,77.65q6.9-5.43,12.06-10t8.07-7.51a5.73,5.73,0,0,1,2-1.12,6.87,6.87,0,0,1,2.17-.43,6.17,6.17,0,0,1,5.42,2.77,10.45,10.45,0,0,1,2.2,5.76,9.41,9.41,0,0,1-1.86,4.37,38.43,38.43,0,0,1-5,5.75q-3.27,3.19-7.69,6.85t-9.58,7.27q-10.42,7.3-17.07,7.73a10.58,10.58,0,0,1-3.6-1.36,7.82,7.82,0,0,1-2.63-2.69,11.4,11.4,0,0,1-1.84-5.91v-.37a2.41,2.41,0,0,1,0-.42,74.55,74.55,0,0,1,2.45-9q.3-1.39.48-2.82t.28-2.67c.07-.92.12-1.86.15-2.82a46.2,46.2,0,0,1,.56-8A4.55,4.55,0,0,1,190.6,60a9,9,0,0,1,4.9-1.25,6.68,6.68,0,0,1,5.13,1.94,10.8,10.8,0,0,1,2.53,5,28.07,28.07,0,0,1,.15,3,24.36,24.36,0,0,1-1.33,8Z" style="fill:#06a64f"/><path d="M261.36,21q-3.12-.05-4.5-.05A17.6,17.6,0,0,1,252,19.69q-2.86-1.49-3.27-5.7,0-5.06,3.37-7.38t10.37-1.94q8.58.9,13.59,4.13t5.31,8.34q.51,6.18-6.62,13a122.08,122.08,0,0,1-14.33,11.91q-7.41,5.17-12.67-3.84a17.07,17.07,0,0,1-.43-5,5.68,5.68,0,0,1,2.38-4A47.46,47.46,0,0,0,261.36,21Z" style="fill:#06a64f"/><path d="M261.31,83.08,253.39,90q-3.83,3.33-7,3.06a9.13,9.13,0,0,1-3.35-.82,15.65,15.65,0,0,1-1.91-1.36,9.09,9.09,0,0,1-3.07-5,6,6,0,0,1,.82-4.9,12,12,0,0,1,3.63-3.36,9.53,9.53,0,0,1-3.27-6.87q0-3.68,3.07-7.83a13.15,13.15,0,0,1,4.75-3.17,19.94,19.94,0,0,1,5.47-.83,11.24,11.24,0,0,1,11.65,8.47Q273,68.91,297,68.91a34.25,34.25,0,0,0,13-2.13,99.58,99.58,0,0,0,11.88-6q3.88-2.5,6.39-.37a12.7,12.7,0,0,1,3.07,3.28A8.14,8.14,0,0,1,332.32,68a11.28,11.28,0,0,1-6.15,9.56,58.87,58.87,0,0,1-12.7,5.14,67.62,67.62,0,0,1-16.3,2.24A313.16,313.16,0,0,1,261.31,83.08Z" style="fill:#06a64f"/></g></g></svg>