<svg xmlns="http://www.w3.org/2000/svg" width="21.555" height="21.555" viewBox="0 0 21.555 21.555"><g transform="translate(12.63 7.999)"><path d="M300.421,190a.421.421,0,1,0,.421.421A.421.421,0,0,0,300.421,190Z" transform="translate(-300 -190)" fill="#00a651"/></g><path d="M21.061,18.68l-5.619-5.619a8.344,8.344,0,0,0,1.4-4.641,8.42,8.42,0,1,0-8.42,8.42,8.345,8.345,0,0,0,4.641-1.4L14.614,17h0l4.065,4.065a1.684,1.684,0,1,0,2.381-2.381Zm-8.2-4.125h0a7.585,7.585,0,1,1,1.692-1.692A7.614,7.614,0,0,1,12.863,14.555Zm.883.382a8.448,8.448,0,0,0,1.19-1.19l1.194,1.194a10.219,10.219,0,0,1-1.19,1.19Zm6.72,5.529a.841.841,0,0,1-1.19,0l-3.738-3.738a11.062,11.062,0,0,0,1.19-1.19l3.738,3.738a.841.841,0,0,1,0,1.19Z" fill="#00a651"/><g transform="translate(1.684 1.684)"><path d="M46.736,40a6.736,6.736,0,1,0,6.736,6.736A6.743,6.743,0,0,0,46.736,40Zm0,12.63a5.894,5.894,0,1,1,5.894-5.894A5.9,5.9,0,0,1,46.736,52.63Z" transform="translate(-40 -40)" fill="#00a651"/></g><g transform="translate(7.999 3.368)"><path d="M195.139,83.245A5.06,5.06,0,0,0,190.421,80a.421.421,0,1,0,0,.842,4.239,4.239,0,0,1,3.932,2.7.421.421,0,1,0,.786-.3Z" transform="translate(-190 -80)" fill="#00a651"/></g></svg>