<svg xmlns="http://www.w3.org/2000/svg" width="24.824" height="24.824" viewBox="0 0 24.824 24.824"><g transform="translate(0.75 0.75)"><path d="M271.778,151.829h0a11.662,11.662,0,0,1-11.662-11.662h0a11.662,11.662,0,0,1,11.662-11.662h0a11.662,11.662,0,0,1,11.662,11.662h0A11.662,11.662,0,0,1,271.778,151.829Z" transform="translate(-260.116 -128.505)" fill="none" stroke="#222221" stroke-miterlimit="10" stroke-width="1.5"/><path d="M269.007,148.25a7.252,7.252,0,0,0,11.156-6.439,5.168,5.168,0,0,0,1.272-1.32,5.086,5.086,0,0,1-1.464.4,2.553,2.553,0,0,0,1.121-1.411,5.115,5.115,0,0,1-1.618.619,2.552,2.552,0,0,0-4.345,2.326,7.235,7.235,0,0,1-5.255-2.664,2.553,2.553,0,0,0,.789,3.4,2.542,2.542,0,0,1-1.155-.319,2.553,2.553,0,0,0,2.045,2.533,2.552,2.552,0,0,1-1.151.043,2.551,2.551,0,0,0,2.381,1.771A5.127,5.127,0,0,1,269.007,148.25Z" transform="translate(-263.558 -132.683)" fill="#222221"/></g></svg>