<svg xmlns="http://www.w3.org/2000/svg" width="24.824" height="24.824" viewBox="0 0 24.824 24.824"><g transform="translate(0.75 0.75)"><path d="M327.173,259.679h0a11.662,11.662,0,0,1-11.662-11.662h0a11.662,11.662,0,0,1,11.662-11.662h0a11.662,11.662,0,0,1,11.662,11.662h0A11.662,11.662,0,0,1,327.173,259.679Z" transform="translate(-315.511 -236.355)" fill="none" stroke="#222221" stroke-miterlimit="10" stroke-width="1.5"/><g transform="translate(5.265 5.264)"><path d="M336.894,251.02a6.282,6.282,0,0,0-12.552-.115c0,.091-.005.182-.005.273a6.186,6.186,0,0,0,.9,3.22l-1.132,3.343,3.478-1.105a6.289,6.289,0,0,0,9.315-5.457C336.9,251.126,336.9,251.073,336.894,251.02Zm-6.278,5.4a5.259,5.259,0,0,1-2.9-.867l-2.029.647.659-1.946a5.186,5.186,0,0,1-1.006-3.073,4.827,4.827,0,0,1,.026-.509,5.283,5.283,0,0,1,10.517.1c.012.135.018.27.018.409A5.266,5.266,0,0,1,330.616,256.418Z" transform="translate(-324.103 -244.945)" fill="#222221" fill-rule="evenodd"/><path d="M335.674,254.577c-.156-.077-.911-.447-1.052-.5s-.245-.077-.347.077-.4.5-.488.6-.18.115-.335.039a4.173,4.173,0,0,1-1.238-.759,4.546,4.546,0,0,1-.855-1.056c-.088-.153-.009-.235.067-.311s.153-.18.232-.268c.021-.026.038-.05.056-.074a1.691,1.691,0,0,0,.1-.182.277.277,0,0,0-.012-.268c-.039-.077-.347-.829-.477-1.135s-.256-.253-.347-.253-.191-.015-.294-.015a.57.57,0,0,0-.411.191,1.71,1.71,0,0,0-.538,1.277,1.935,1.935,0,0,0,.079.52,3.463,3.463,0,0,0,.55,1.058,6.324,6.324,0,0,0,2.629,2.308c1.567.609,1.567.406,1.849.379a1.537,1.537,0,0,0,1.037-.726,1.259,1.259,0,0,0,.091-.727C335.93,254.692,335.827,254.653,335.674,254.577Z" transform="translate(-326.282 -247.085)" fill="#222221" fill-rule="evenodd"/></g></g></svg>