<svg xmlns="http://www.w3.org/2000/svg" width="19.619" height="19.619" viewBox="0 0 19.619 19.619"><g transform="translate(0.75 0.75)"><path d="M324.57,254.474h0a9.059,9.059,0,0,1-9.059-9.059h0a9.06,9.06,0,0,1,9.059-9.06h0a9.06,9.06,0,0,1,9.06,9.06h0A9.059,9.059,0,0,1,324.57,254.474Z" transform="translate(-315.511 -236.355)" fill="none" stroke="#222221" stroke-miterlimit="10" stroke-width="1.5"/><g transform="translate(4.09 4.089)"><path d="M334.039,249.664a4.88,4.88,0,0,0-9.751-.089c0,.07,0,.141,0,.212a4.805,4.805,0,0,0,.7,2.5l-.88,2.6,2.7-.859a4.885,4.885,0,0,0,7.236-4.239C334.041,249.746,334.041,249.7,334.039,249.664Zm-4.877,4.193a4.085,4.085,0,0,1-2.256-.674l-1.576.5.512-1.512a4.029,4.029,0,0,1-.781-2.387,3.748,3.748,0,0,1,.02-.4,4.1,4.1,0,0,1,8.17.078c.009.105.014.21.014.318A4.091,4.091,0,0,1,329.162,253.858Z" transform="translate(-324.103 -244.945)" fill="#222221" fill-rule="evenodd"/><path d="M334.348,253.661c-.121-.06-.708-.348-.817-.386s-.19-.06-.27.06-.31.386-.379.463-.139.089-.26.03a3.241,3.241,0,0,1-.962-.589,3.531,3.531,0,0,1-.665-.82c-.069-.119-.007-.183.052-.242s.119-.139.18-.208l.043-.057a1.315,1.315,0,0,0,.076-.141.216.216,0,0,0-.009-.208c-.03-.06-.27-.644-.37-.882s-.2-.2-.269-.2-.148-.011-.228-.011a.442.442,0,0,0-.319.149,1.329,1.329,0,0,0-.418.992,1.5,1.5,0,0,0,.061.4,2.689,2.689,0,0,0,.427.822,4.912,4.912,0,0,0,2.042,1.793c1.217.473,1.217.315,1.437.295a1.194,1.194,0,0,0,.806-.564.978.978,0,0,0,.071-.565C334.547,253.75,334.467,253.72,334.348,253.661Z" transform="translate(-327.052 -247.841)" fill="#222221" fill-rule="evenodd"/></g></g></svg>