<svg xmlns="http://www.w3.org/2000/svg" width="19.619" height="19.619" viewBox="0 0 19.619 19.619"><g transform="translate(0.75 0.75)"><path d="M435.749,146.624h0a9.059,9.059,0,0,1-9.059-9.059h0a9.059,9.059,0,0,1,9.059-9.06h0a9.06,9.06,0,0,1,9.06,9.06h0A9.06,9.06,0,0,1,435.749,146.624Z" transform="translate(-426.69 -128.505)" fill="none" stroke="#222221" stroke-miterlimit="10" stroke-width="1.5"/><g transform="translate(4.092 4.092)"><path d="M440.253,138c1.326,0,1.483.005,2.007.029a2.752,2.752,0,0,1,.922.171,1.642,1.642,0,0,1,.943.943,2.752,2.752,0,0,1,.171.922c.024.524.029.681.029,2.007s-.005,1.483-.029,2.007a2.753,2.753,0,0,1-.171.923,1.642,1.642,0,0,1-.943.943,2.744,2.744,0,0,1-.922.171c-.524.024-.681.029-2.007.029s-1.483-.005-2.007-.029a2.748,2.748,0,0,1-.923-.171,1.645,1.645,0,0,1-.943-.943,2.744,2.744,0,0,1-.171-.923c-.024-.524-.029-.681-.029-2.007s.005-1.483.029-2.007a2.744,2.744,0,0,1,.171-.922,1.645,1.645,0,0,1,.943-.943,2.755,2.755,0,0,1,.923-.171c.524-.024.681-.029,2.007-.029m0-.895c-1.349,0-1.518.006-2.048.03a3.649,3.649,0,0,0-1.206.231,2.54,2.54,0,0,0-1.452,1.453,3.637,3.637,0,0,0-.231,1.206c-.024.53-.03.7-.03,2.048s.006,1.518.03,2.048a3.637,3.637,0,0,0,.231,1.206A2.54,2.54,0,0,0,437,146.775a3.661,3.661,0,0,0,1.206.231c.53.024.7.03,2.048.03s1.518-.006,2.048-.03a3.662,3.662,0,0,0,1.206-.231,2.543,2.543,0,0,0,1.453-1.453,3.65,3.65,0,0,0,.231-1.206c.024-.53.03-.7.03-2.048s-.006-1.518-.03-2.048a3.65,3.65,0,0,0-.231-1.206,2.543,2.543,0,0,0-1.453-1.453,3.649,3.649,0,0,0-1.206-.231c-.53-.024-.7-.03-2.048-.03" transform="translate(-435.286 -137.101)" fill="#222221"/><path d="M442.913,142.178a2.551,2.551,0,1,0,2.551,2.551,2.551,2.551,0,0,0-2.551-2.551m0,4.206a1.656,1.656,0,1,1,1.656-1.656,1.656,1.656,0,0,1-1.656,1.656" transform="translate(-437.946 -139.761)" fill="#222221"/><path d="M451.23,141.31a.6.6,0,1,1-.6-.6.6.6,0,0,1,.6.6" transform="translate(-443.015 -138.994)" fill="#222221"/></g></g></svg>