<svg xmlns="http://www.w3.org/2000/svg" width="19.619" height="19.619" viewBox="0 0 19.619 19.619"><g transform="translate(0.75 0.75)"><rect width="18.119" height="18.119" rx="9.059" transform="translate(0 0)" fill="none" stroke="#222221" stroke-miterlimit="10" stroke-width="1.5"/><g transform="translate(4.771 4.011)"><rect width="1.875" height="6.057" transform="translate(0.18 3.028)" fill="#222221"/><path d="M326.983,193.092a1.118,1.118,0,1,0-1.109-1.118A1.114,1.114,0,0,0,326.983,193.092Z" transform="translate(-325.874 -190.857)" fill="#222221"/><path d="M334.508,199.892c0-.851.392-1.359,1.142-1.359.69,0,1.021.487,1.021,1.359v3.18h1.866v-3.835a2.2,2.2,0,0,0-4.029-1.406v-.815h-1.8v6.057h1.8Z" transform="translate(-329.455 -193.987)" fill="#222221"/></g></g></svg>