<svg xmlns="http://www.w3.org/2000/svg" width="19.619" height="19.619" viewBox="0 0 19.619 19.619"><g transform="translate(0.75 0.75)"><path d="M269.176,146.624h0a9.06,9.06,0,0,1-9.06-9.059h0a9.06,9.06,0,0,1,9.06-9.06h0a9.059,9.059,0,0,1,9.059,9.06h0A9.059,9.059,0,0,1,269.176,146.624Z" transform="translate(-260.116 -128.505)" fill="none" stroke="#222221" stroke-miterlimit="10" stroke-width="1.5"/><path d="M269.007,146.251a5.633,5.633,0,0,0,8.666-5,4.015,4.015,0,0,0,.988-1.025,3.951,3.951,0,0,1-1.137.312,1.983,1.983,0,0,0,.871-1.1,3.973,3.973,0,0,1-1.257.481,1.982,1.982,0,0,0-3.375,1.807,5.621,5.621,0,0,1-4.082-2.069,1.983,1.983,0,0,0,.613,2.644,1.975,1.975,0,0,1-.9-.248,1.983,1.983,0,0,0,1.589,1.967,1.982,1.982,0,0,1-.894.033,1.981,1.981,0,0,0,1.85,1.376A3.983,3.983,0,0,1,269.007,146.251Z" transform="translate(-264.774 -134.159)" fill="#222221"/></g></svg>